<svg xmlns="http://www.w3.org/2000/svg" width="800" height="130" fill="none" class="mb-[22px]"><path fill="#262626" d="M321.494 34.918q0-2.322 1.134-3.51 1.188-1.188 3.564-1.188h32.616q2.322 0 3.51 1.188 1.188 1.134 1.188 3.51v26.784q0 2.322-1.188 3.51-1.134 1.188-3.51 1.188h-32.616q-2.322 0-3.51-1.188-1.188-1.134-1.188-3.51zm35.424 1.674h-28.836v23.436h28.836zm.81 7.938q2.484 0 2.484 2.484v1.404q0 2.484-2.484 2.484h-30.456q-2.484 0-2.484-2.484v-1.404q0-2.484 2.484-2.484zm-14.526-23.166q2.538 0 2.538 2.538v6.966q0 2.538-2.538 2.538h-1.404q-2.538 0-2.538-2.538v-6.966q0-2.538 2.538-2.538zm21.114-3.078q2.484 0 2.484 2.484v1.404q0 2.484-2.484 2.484h-43.632q-2.484 0-2.484-2.484V20.77q0-2.484 2.484-2.484zm36.396-1.026q2.538 0 2.538 2.538v41.958q0 4.698-4.698 4.698h-5.778q-2.538 0-2.538-2.538v-1.404q0-2.538 2.538-2.538h3.888V19.798q0-2.538 2.538-2.538zm-16.254 9.666q2.538.27 2.214 2.862-1.944 13.608-5.022 23.76-.702 2.43-3.132 1.62l-1.404-.432q-2.376-.81-1.566-3.24 1.566-5.4 2.754-11.286a130 130 0 0 0 1.89-11.286q.216-1.242.864-1.782.702-.594 1.998-.432zm31.968-.216q1.296-.162 1.944.378.702.54.918 1.836 1.728 12.852 4.644 22.572.81 2.43-1.566 3.24l-1.404.432q-2.43.81-3.132-1.62a151 151 0 0 1-2.97-11.88q-1.296-6.21-2.052-11.88-.324-2.592 2.214-2.862zm62.316-5.994q2.43 0 2.43 2.43v1.404q0 2.43-2.43 2.43h-37.314V42.1q0 11.826-4.536 22.14-1.026 2.322-3.294 1.242l-1.296-.648q-1.134-.54-1.458-1.404-.27-.81.216-1.998 3.888-8.964 3.888-19.332V25.306q0-4.59 4.59-4.59zm-19.17-3.564q2.538 0 2.538 2.538v1.62q0 2.538-2.538 2.538h-1.404q-2.538 0-2.538-2.538v-1.62q0-2.538 2.538-2.538zm19.71 42.282q2.484 0 2.484 2.484v1.404q0 2.484-2.484 2.484h-34.56q-2.484 0-2.484-2.484v-1.404q0-2.484 2.484-2.484zm-29.862-26.73q2.43-.27 2.7 2.16l1.782 16.416q.27 2.43-2.16 2.7l-1.404.108q-2.43.27-2.7-2.16l-1.782-16.416q-.27-2.43 2.16-2.7zm13.338-.486q2.43 0 2.43 2.43v16.956q0 2.43-2.43 2.43h-1.404q-2.43 0-2.43-2.43V34.648q0-2.43 2.43-2.43zm13.338.594q2.43.27 2.16 2.7l-1.782 16.416q-.27 2.43-2.7 2.16l-1.404-.108q-2.43-.27-2.16-2.7l1.782-16.416q.27-2.43 2.7-2.16zM289.24 104.9h-2.78q-.02 1.26-.1 2.62h2.02v1.84h-2.1q-.06 1.04-.32 1.56-.26.54-.84.76t-1.72.3l-2.16.14-.58-1.86 2.18-.12q.76-.04 1.06-.2t.38-.58h-11.06l.52-4.46h-2.36v-1.84h2.58l.46-3.98a37 37 0 0 1-1.3 1.48l-1.4-1.52q1.16-1.18 2.18-2.64a24 24 0 0 0 1.76-2.9l1.86.68q-.28.6-.6 1.2h11.36v1.82H275.8q-.4.64-1.06 1.46h11.98l-.18 4.4h2.7zm-13.02-4.42-.34 2.58h5.3q-.66-.44-1.5-.9t-1.44-.74l.56-.94zm8.44 2.58.08-2.58h-4.62q1.76.92 2.42 1.34l-.66 1.24zm-9.02 1.84-.34 2.62h5.64q-1.66-1.04-2.94-1.64l.5-.98zm8.8 2.62.12-2.62h-4.7q1.5.72 2.4 1.28l-.62 1.34zm8.708-4.08v-2.24h17.68v2.24zm21.727-1.64a40 40 0 0 0 6.56-1.6 16 16 0 0 1-2.44-1.7 27 27 0 0 1-2.54 1.9l-1.04-1.64a23 23 0 0 0 3-2.42q1.48-1.4 2.32-2.58l1.84.94-.64.8h8.54v1.86q-1.84 1.6-4.38 2.92 2.38.72 6.56 1.42l-.42 1.78q-5.12-.78-8.46-2.14-3.64 1.48-8.52 2.36zm8.8-2.44q2.42-1.02 4.08-2.22h-7.32l-.08.08a14.3 14.3 0 0 0 3.32 2.14m7.78 6.76h-6.66v3.3q0 .96-.24 1.44-.22.5-.76.7-.52.22-1.54.32l-1.3.12-.6-1.94 1.16-.1q.6-.06.86-.14.26-.1.34-.32.1-.22.1-.72v-2.66h-6.92v-1.9h6.92v-1.7l1.98.08v1.62h6.66zm-10.3 1.58a17 17 0 0 1-2.32 2.06q-1.32 1-3.06 2.06l-1.04-1.84a18.6 18.6 0 0 0 2.82-1.68q1.38-.98 2.36-2.04zm5.6-1.3q.92.46 2.72 1.56 1.82 1.08 2.8 1.76l-.96 1.88q-.98-.76-2.74-1.92-1.74-1.16-2.74-1.72zm13.168-9.78v12.94h14.12v1.8h-16V94.7h15.76v1.92zm13.52 7.4h-5.66q-.06.34-.14.58 1.16.6 2.78 1.52a65 65 0 0 1 2.66 1.56l-.86 1.82a72 72 0 0 0-2.6-1.64 71 71 0 0 0-2.74-1.62q-.7.98-1.98 1.74-1.26.74-3.26 1.4l-.98-1.8q2.34-.66 3.5-1.48t1.56-2.08h-5.24v-1.78h5.48q.06-.7.06-2.1h-2.32q-.48.8-1.32 1.8l-1.52-1.08q1.68-1.92 2.44-4.12l1.68.72q-.12.28-.16.42l-.24.58h7.96v1.68h-4.54l-.1 2.1h5.54zM360.85 99v2.32h-1.96v-4.2h2.9a31 31 0 0 0-1.08-1.72l-.4-.62 1.76-.9.3.44a28 28 0 0 1 1.42 2.2l-.92.6h3.64a26 26 0 0 0-1.36-2.62l1.72-.8a44 44 0 0 1 1.54 2.78l-1.08.64h2.5l.42-.62q1.2-1.74 1.68-2.62l1.86.96q-.54.84-1.56 2.28h2.98v4.2h-1.92V99zm14.82 6.18v1.9h-7.26v2.34q0 .98-.26 1.46-.26.5-.84.7-.58.22-1.76.34l-1.42.14-.62-2.04 1.6-.1q.56-.04.78-.12.24-.08.3-.28.08-.2.08-.72v-1.72h-7.84v-1.9h7.84v-.88l2.9-1.72h-7.48v-1.84h10.8v1.84l-4.08 2.52v.08zm10.708-4.4h3.44V99.6h-4.08v-1.54h4.08v-1.18h-3.42v-1.52h3.42v-1.44l1.8.08v1.36h4.3v2.7h1.34v1.54h-1.34v2.7h-4.3v1.2h4.48v1.52h-4.48v1.16h5.2v1.54h-5.2v1.58h-1.8v-1.58h-4.42v-1.54h4.42v-1.16h-3.52v-1.52h3.52v-1.2h-3.44zm7.08 8.94q2.04 0 4.04-.06l-.3 1.72a128 128 0 0 1-7.82 0q-2.08-.06-3.62-.54a6.5 6.5 0 0 1-2.68-1.58 19 19 0 0 1-2.42 2.84l-1.34-1.48q1.539-1.4 2.52-2.9-.96-1.56-1.64-3.98l1.379-.52q.541 1.72 1.141 2.9.76-1.64 1.12-3.74h-3.5v-1.66l3.14-3.8h-3.2v-1.68h5.32v1.7l-3.14 3.76h3.16v1.62a24 24 0 0 1-.68 3.04 14.3 14.3 0 0 1-1.02 2.5q.94 1.02 2.2 1.38t3.3.42q2.02.06 4.04.06m.74-12.84h-2.58v1.18h2.58zm-2.58 3.9h2.58V99.6h-2.58zm20.947-1.44q-.3-.96-.94-2.34t-1.16-2.18l1.74-.94q.5.76 1.16 2.08.66 1.3.98 2.16zm-7.32-.36q-.46-.84-1.22-1.98-.74-1.16-1.28-1.74l1.36-1.08q.56.58 1.32 1.6t1.26 1.86zm14.28 11.42-1.06 1.98q-3.36-2.12-5.52-4.42-1.04 1.08-2.44 2.1-1.38 1.02-3.28 2.16l-1.16-1.86a46 46 0 0 0 3.18-2.06 20 20 0 0 0 2.34-1.94 20.5 20.5 0 0 1-2.56-4.4q-1.04-2.44-1.66-5.5l1.84-.66q.52 2.74 1.42 4.96a18.8 18.8 0 0 0 2.3 4.04q1.24-1.68 1.96-3.88.74-2.2 1.24-5.54l1.96.46q-.7 3.76-1.58 6.24-.86 2.46-2.22 4.32 2.14 2.22 5.24 4m-11.74-4.68.62 2.06a82 82 0 0 0-2.98 2.6l-.7.7-1.22-1.42q.26-.3.32-.6.06-.32.06-.84v-6.28h-2.02v-1.98h3.94v7.56zm25.808-9.88q-1.06 2.38-2.28 4.04h2.24v1.68h-3.6q-.74.8-1.64 1.58h3.999v8.22h-7.139v-5.82l-1.46.98-.92-1.62q2.72-1.66 4.6-3.34h-3.86v-1.68h3.38v-2.16h-2.76V96.1h2.76v-2.18l1.84.08v2.1h2.12v1.14q.54-.98 1.04-2.18zm5.28 5.84q1.1 1.52 1.48 2.6.4 1.06.4 2.28 0 1.12-.3 1.78-.3.64-.96.96-.66.3-1.84.42l-.64.06-.58-1.92.76-.08q.74-.1 1.06-.22.34-.12.46-.38.14-.28.14-.86 0-.94-.42-1.94-.42-1.02-1.54-2.34l1.78-5.46h-2.76v15.36h-1.88V94.82h6.52v1.92zm-10.12-1.8h.28q.86-1.02 1.56-2.16h-1.84zm-1.82 6.62h3.68v-1.76h-3.68zm0 1.52v1.8h3.68v-1.8zm35.687-10.2h-10.4a28 28 0 0 1-1.08 1.78h9.32v9.98q0 .86-.24 1.32-.24.48-.78.7-.52.22-1.48.3l-1.6.12-.58-1.86 1.52-.12q.58-.04.8-.1t.28-.24q.08-.18.08-.64v-.7h-8.18v3.5h-1.98v-8.76q-1.14 1.16-2.54 2.3l-1.2-1.7q3.26-2.6 5.34-5.88h-4.34v-1.86h5.36q.56-1.16.94-2.32l2.04.46q-.3.78-.76 1.86h9.48zm-12.34 5.28h8.18v-1.72h-8.18zm0 1.7v1.82h8.18v-1.82zm20.628 4.92q0 .9-.2 1.32t-.7.58q-.48.18-1.52.26l-.92.08-.54-1.84 1-.08a7 7 0 0 0 .68-.08.43.43 0 0 0 .28-.24q.08-.18.08-.6v-4.3q-1.6.64-2.26.86l-.4-2.04q1.1-.36 2.66-.98v-3.3h-2.061v-1.88h2.061v-3.44l1.84.08v3.36h1.6v1.88h-1.6v2.54l1.46-.62.16 1.14.12.84q-.96.46-1.74.78zm13.5-6.2h-4.22v1.76h3.02V112h-1.86v-.78h-4.28v.8h-1.88v-6.74h3.14v-1.76h-3.4q-.14 2.76-.68 4.64t-1.74 3.84l-1.72-1.04q.92-1.56 1.4-2.9.48-1.36.68-3.06.22-1.72.22-4.36v-5.6h10.48v5.28h-8.58v1.5h3.34v-1.3l1.86.08v1.22h4.22zm-2.78-4.9v-1.9h-6.64v1.9zm-4.56 10.92h4.28v-2.5h-4.28zm28.967-14.5V97h-2.5v11.96q0 1.18-.26 1.74-.24.56-.88.8-.62.24-1.96.36l-1.3.12-.62-1.98 1.52-.12q.7-.06 1-.18.32-.12.42-.4t.1-.9V97h-13.16v-1.96zm-15.54 4.28h8.22v8.84h-8.22zm1.9 6.9h4.44v-4.94h-4.44zm35.688 2.98-1.44 1.76q-1.74-1.3-2.94-2.66a13.8 13.8 0 0 1-2.44 2.1q-1.38 1.02-3.28 2.16l-1.16-1.86a46 46 0 0 0 3.18-2.06 20 20 0 0 0 2.34-1.94 20.5 20.5 0 0 1-2.56-4.4q-1.04-2.44-1.66-5.5l1.84-.66q.52 2.74 1.42 4.96a18.8 18.8 0 0 0 2.3 4.04q1.24-1.68 1.96-3.88.74-2.2 1.24-5.54l1.96.46q-.7 3.76-1.58 6.24-.86 2.46-2.22 4.32 2.14 2.22 5.24 4m-11.74-4.68.62 2.06a82 82 0 0 0-2.98 2.6l-.7.7-1.22-1.42q.26-.3.32-.6.06-.32.06-.84v-6.28h-2.02v-1.98h3.94v7.56zm25.808-9.88q-1.06 2.38-2.28 4.04h2.24v1.68h-3.6q-.74.8-1.64 1.58h3.999v8.22h-7.139v-5.82l-1.46.98-.92-1.62q2.72-1.66 4.6-3.34h-3.86v-1.68h3.38v-2.16h-2.76V96.1h2.76v-2.18l1.84.08v2.1h2.12v1.14q.54-.98 1.04-2.18zm5.28 5.84q1.1 1.52 1.48 2.6.4 1.06.4 2.28 0 1.12-.3 1.78-.3.64-.96.96-.66.3-1.84.42l-.64.06-.58-1.92.76-.08q.74-.1 1.06-.22.34-.12.46-.38.14-.28.14-.86 0-.94-.42-1.94-.42-1.02-1.54-2.34l1.78-5.46h-2.76v15.36h-1.88V94.82h6.52v1.92zm-10.12-1.8h.28q.86-1.02 1.56-2.16h-1.84zm-1.82 6.62h3.68v-1.76h-3.68zm0 1.52v1.8h3.68v-1.8z"></path><path fill="#FF7918" stroke="#fff" stroke-width="2" d="M460 12a5 5 0 1 1 0 10 5 5 0 0 1 0-10Z"></path></svg>
